<?xml version="1.0" encoding="utf-8"?>
<!-- Generator: Adobe Illustrator 26.0.2, SVG Export Plug-In . SVG Version: 6.00 Build 0)  -->
<svg version="1.1" id="Ñëîé_1" xmlns="http://www.w3.org/2000/svg" xmlns:xlink="http://www.w3.org/1999/xlink" x="0px" y="0px"
	 viewBox="0 0 225 222" style="enable-background:new 0 0 225 222;" xml:space="preserve">
<style type="text/css">
	.st0{fill:#FFFFFF;}
</style>
<g>
	<path st0" d="M188.96,143.62c0.16,0.92,0.26,1.86,0.26,2.82v57.43c0,0.96-0.1,1.9-0.26,2.82
		c12.46-1.06,22.31-14.77,22.31-31.54C211.28,158.39,201.42,144.68,188.96,143.62z"/>
	<path st0" d="M171.7,134.32c-7.42,0-13.49,6.07-13.49,13.49v54.71c0,7.42,6.07,13.49,13.49,13.49
		c7.42,0,13.49-6.07,13.49-13.49V147.8C185.19,140.39,179.12,134.32,171.7,134.32z"/>
	<path st0" d="M56.3,134.32c-7.42,0-13.49,6.07-13.49,13.49v54.71c0,7.42,6.07,13.49,13.49,13.49
		c7.42,0,13.49-6.07,13.49-13.49V147.8C69.79,140.39,63.72,134.32,56.3,134.32z"/>
	<path st0" d="M39.03,143.62c-12.46,1.06-22.31,14.77-22.31,31.54c0,16.77,9.86,30.48,22.31,31.54
		c-0.16-0.92-0.26-1.86-0.26-2.82v-57.43C38.77,145.48,38.87,144.54,39.03,143.62z"/>
	<path st0" d="M179.75,61.41c1.17,0,2.31-0.18,3.43-0.45c12.24,15.22,19.59,34.53,19.59,55.54c0,8.98-1.34,17.76-3.92,26.15
		c4.39,2.54,8.18,6.48,11,11.37c4.65-11.85,7.06-24.52,7.06-37.53c0-24.7-8.75-47.38-23.3-65.14c1.73-5.24,0.46-11.23-3.81-15.26
		C169.22,16.69,142.3,6,114,6C85.7,6,58.77,16.69,38.19,36.1c-4.27,4.03-5.54,10.02-3.81,15.26c-14.55,17.76-23.3,40.44-23.3,65.13
		c0,13.01,2.42,25.68,7.06,37.53c2.83-4.89,6.61-8.84,11-11.37c-2.58-8.39-3.92-17.18-3.92-26.15c0-21,7.35-40.32,19.59-55.53
		c1.12,0.27,2.26,0.45,3.43,0.45c3.75,0,7.32-1.42,10.05-3.99C73.42,43.16,93.2,35.31,114,35.31c20.8,0,40.57,7.85,55.69,22.11
		C172.42,60,175.99,61.41,179.75,61.41z"/>
</g>
</svg>
