<?xml version="1.0" encoding="utf-8"?>
<!-- Generator: Adobe Illustrator 26.0.2, SVG Export Plug-In . SVG Version: 6.00 Build 0)  -->
<svg version="1.1" id="Layer_1" xmlns="http://www.w3.org/2000/svg" xmlns:xlink="http://www.w3.org/1999/xlink" x="0px" y="0px"
	 viewBox="0 0 1681.04 2000" style="enable-background:new 0 0 1681.04 2000;" xml:space="preserve">
<style type="text/css">
	.st0{fill:#09318B;}
</style>
<path className="st0" d="M1115.2,540.8H510.67v-43.33h604.53V540.8z M430.54,475.32l-34.79-34.79l-72.47,72.59l-42.92-42.93l-34.58,34.6
	l77.54,77.56L430.54,475.32z M1115.2,727.88H510.67v43.32h604.53V727.88z M430.54,705.73l-34.79-34.79l-72.47,72.59l-42.92-42.93
	l-34.58,34.6l77.54,77.55L430.54,705.73z M1033.4,958.28H510.67v43.33h522.73V958.28z M430.54,936.13l-34.79-34.79l-72.47,72.59
	L280.35,931l-34.58,34.6l77.54,77.55L430.54,936.13z M1654.48,1119.14v460.05c0,227.46-384.96,395.09-401.35,402.12l-10.34,4.43
	l-10.32-4.43c-9.32-3.99-137.79-59.9-246.9-149.2H26.56V280.19h137.78V142.41h128.15V14.26h1307.01v1095
	c10.93,2.25,21.93,4.36,33.05,6.22L1654.48,1119.14z M1242.8,1928.54l3.77-1.72c132.02-60.24,355.43-201.25,355.43-347.63v-415.83
	l-7.31-1.46c-136.87-27.3-259.74-83.41-345.94-158l-5.95-5.15l-5.95,5.15c-86.2,74.59-209.05,130.69-345.93,158l-7.31,1.46v415.83
	c0,146.37,223.41,287.38,355.42,347.63L1242.8,1928.54z M928.12,1779.5c-47.83-49.64-84.81-106.53-94.51-168.48H245.77v-43.32
	h585.34v-159.81H245.77v-43.33h585.34v-159.81H245.77v-43.32h585.34v-42.28l21.92-3.66c151.78-25.31,287.09-87.8,371.27-171.45
	l18.5-18.37l18.5,18.37c6.25,6.21,12.86,12.26,19.66,18.23V332.79H79.17V1779.5H928.12z M345.1,66.87v75.54h1126.25v930.02
	c24.29,9.17,49.55,17.3,75.55,24.35V66.87H345.1z M216.95,280.19h1116.62v722.41c26.05,17.45,54.64,33.39,85.18,47.65V195.02H216.95
	V280.19z M1040.53,1471.76l170.11,170.13l276.72-276.43l-47.74-47.72l-229.02,229.2l-122.64-122.63L1040.53,1471.76z"/>
</svg>
