<?xml version="1.0" encoding="utf-8"?>
<!-- Generator: Adobe Illustrator 26.0.2, SVG Export Plug-In . SVG Version: 6.00 Build 0)  -->
<svg version="1.1" id="Layer_1" xmlns="http://www.w3.org/2000/svg" xmlns:xlink="http://www.w3.org/1999/xlink" x="0px" y="0px"
	 viewBox="0 0 2000 2000" style="enable-background:new 0 0 2000 2000;" xml:space="preserve">
<style type="text/css">
	.st0{fill:#09318B;}
</style>
<g>
	<path className="st0" d="M1953.25,26.09h-153.8c-16.75,0-30.31,13.56-30.31,30.31v26.43h-499.76c-48.48,0-93.95,21.52-124.67,59.02
		l-140.42,171.47c-0.5,0.62-0.62,1.39-1.1,2.04H176.74c-16.75,0-30.31,13.56-30.31,30.31v678.07c0,16.75,13.56,30.31,30.31,30.31
		h1280.01c16.75,0,30.31-13.56,30.31-30.31V714.66h117.57c50.79,0,96.49-32.32,113.72-80.45c0.03-0.06,0-0.12,0.03-0.18
		c0.03-0.06,0.06-0.12,0.09-0.18c1.63-4.59,5.77-9.98,12.11-9.98h38.57v47.24c0,16.75,13.56,30.31,30.31,30.31h153.8
		c16.75,0,30.31-13.56,30.31-30.31V56.4C1983.56,39.64,1970.01,26.09,1953.25,26.09z M207.05,993.43V375.98h996.15l-84.15,88.38
		c-32.2,33.8-40.79,81.46-22.41,124.35c18.38,42.92,58.81,69.59,105.52,69.59c29.48,0,57.48-11.16,78.76-31.32l101.94-95.58
		c9.09-8.5,20.87-13.17,33.27-13.2l10.3-0.03v475.25H207.05z M1730.57,563.26c-31.2,0-58.37,19.74-69.23,50.29
		c-0.03,0.09-0.06,0.21-0.09,0.27c-8.61,24.03-31.38,40.23-56.62,40.23h-117.57V518.09l102.44-0.15c48.01,0,87.05-39.04,87.05-87.05
		c0-16.75-13.56-30.31-30.31-30.31c-16.75,0-30.31,13.56-30.31,30.31c0,14.56-11.87,26.43-26.49,26.43l-173.42,0.27
		c-27.79,0.03-54.29,10.54-74.59,29.6l-102.06,95.7c-10.09,9.53-23.29,14.8-37.21,14.8c-22.38,0-41-12.28-49.82-32.83
		c-8.79-20.57-4.85-42.51,10.6-58.7l249.91-262.43c11.54-12.11,11.07-31.32-1.07-42.86c-12.08-11.48-31.26-11.04-42.86,1.07
		l-108.01,113.43h-179.97l110.64-135.09c19.18-23.41,47.54-36.82,77.79-36.82h499.76v419.81H1730.57z M1922.94,640.81h-93.18V86.71
		h93.18V640.81z"/>
	<path className="st0" d="M563.05,652.71c-17.64,0-31.97,14.33-31.97,32c0,17.67,14.33,31.97,31.97,31.97c17.67,0,32-14.3,32-31.97
		C595.04,667.04,580.72,652.71,563.05,652.71z"/>
	<path className="st0" d="M1070.44,652.71c-17.67,0-32,14.33-32,32c0,17.67,14.33,31.97,32,31.97c17.67,0,31.97-14.3,31.97-31.97
		C1102.41,667.04,1088.11,652.71,1070.44,652.71z"/>
	<path className="st0" d="M1485.16,1120.36l-189.41,189.44c-20.39-18.94-47.45-29.75-77.17-29.75H742.72
		c-115.68,0-226.61,45.94-308.43,127.72l-87.2,87.23l-65.3-65.27c-11.99-12.02-31.46-12.02-43.48,0L25.43,1642.61
		c-11.99,11.99-11.99,31.46,0,43.48c12.02,12.02,31.49,11.99,43.51,0l191.12-191.15l65.27,65.3l243.78,243.75l65.27,65.27
		l-52.15,52.18c-12.02,11.99-12.02,31.46,0,43.48c11.99,11.99,31.46,11.99,43.48,0l73.88-73.91c12.02-12.02,12.02-31.46,0-43.48
		l-65.27-65.27l35.76-35.76c11.46-11.46,26.99-17.91,43.19-17.91h394c88.89,0,174.11-35.28,236.95-98.12l329.65-329.65
		c53.93-53.93,50.7-143.71-9.68-193.34C1611.55,1064.21,1533.35,1072.2,1485.16,1120.36z M1630.38,1257.34l-329.65,329.65
		c-51.68,51.68-120.38,80.13-193.46,80.13h-394c-32.74,0-63.52,12.76-86.67,35.9l-35.76,35.76l-200.27-200.3l87.2-87.23
		c70.77-70.74,164.87-109.73,264.95-109.73h475.87c21.87,0,39.93,12.08,48.31,32.29c8.38,20.19,4.14,41.5-11.34,56.98
		c-9.89,9.89-23.03,15.33-36.97,15.33h-201.31c-16.99,0-30.75,13.76-30.75,30.75c0,16.96,13.76,30.72,30.75,30.72h201.31
		c30.4,0,58.96-11.84,80.45-33.33c29.66-29.66,40.37-70.86,29.42-110.23l204.3-204.33c26.94-26.91,70.71-26.91,97.62,0
		C1657.29,1186.63,1657.29,1230.44,1630.38,1257.34z"/>
	<path className="st0" d="M835.22,648.36v-94.75c16.16,6.63,26.17,19.54,30.01,38.78l62.72-7.99c-4.23-24.89-14.36-44.4-30.31-58.52
		c-15.95-14.15-36.76-22.76-62.43-25.81v-24.01h-35.76v24.01c-27.47,2.58-50.02,12.58-67.69,30.04
		c-17.67,17.43-26.52,40.05-26.52,67.84c0,54.43,31.41,90.4,94.22,107.83v101.56c-9.06-4.2-17.26-11.04-24.54-20.48
		c-7.25-9.47-12.22-20.57-14.83-33.33l-64.85,6.78c9.92,63.17,44.64,98.24,104.22,105.17v27.85h35.76v-29.07
		c31.52-4.35,56.56-16.31,75.15-35.85c18.59-19.57,27.88-44.52,27.88-74.89c0-27.29-8.17-49.85-24.54-67.61
		C899.98,671.06,873.81,658.54,835.22,648.36z M799.46,636.73c-21.4-9.06-32.12-23.27-32.12-42.65c0-9.21,3.05-17.61,9.12-25.19
		c6.04-7.61,13.73-12.94,23-16.01V636.73z M865.38,794.38c-7.96,8.79-18.03,14.24-30.16,16.34V716.2
		c28.09,7.93,42.12,23.35,42.12,46.29C877.34,774.93,873.37,785.55,865.38,794.38z"/>
</g>
</svg>
