<?xml version="1.0" encoding="utf-8"?>
<!-- Generator: Adobe Illustrator 26.0.2, SVG Export Plug-In . SVG Version: 6.00 Build 0)  -->
<svg version="1.1" id="Main" xmlns="http://www.w3.org/2000/svg" xmlns:xlink="http://www.w3.org/1999/xlink" x="0px" y="0px"
	 viewBox="0 0 490.7 488.35" style="enable-background:new 0 0 490.7 488.35;" xml:space="preserve">
<style type="text/css">
	.st0{fill:#FFFFFF;}
</style>
<g id="Element_63_">
	<path className="st0" d="M472.83,411.19l-90.09-90.09c20.9-32.15,33.08-70.48,33.08-111.68c0-113.35-91.89-205.23-205.23-205.23
		C97.23,4.17,5.35,96.06,5.35,209.41s91.89,205.23,205.23,205.23c41.2,0,79.54-12.19,111.68-33.09l90.09,90.09
		c16.7,16.7,43.77,16.7,60.47,0C489.52,454.95,489.52,427.88,472.83,411.19z M53.67,209.41c0-86.66,70.25-156.91,156.91-156.91
		c86.66,0,156.91,70.25,156.91,156.91c0,36.7-12.7,70.38-33.81,97.11L307.7,332.5c-26.73,21.12-60.41,33.82-97.12,33.82
		C123.92,366.32,53.67,296.07,53.67,209.41z"/>
</g>
</svg>
